<svg width="228" height="40" viewBox="0 0 228 40" xmlns="http://www.w3.org/2000/svg"><title>masterpass-initial</title><g fill="none" fill-rule="evenodd"><path stroke="#979797" d="M-1636.5-871.5h70814v2962h-70814z"/><path fill="#FF5F00" d="M23.574 35.672H41.05V4.27H23.574z"/><path d="M24.684 19.971c0-6.37 2.983-12.045 7.628-15.701A19.884 19.884 0 0 0 19.97 0C8.94 0 0 8.942 0 19.971c0 11.03 8.94 19.971 19.97 19.971 4.659 0 8.945-1.595 12.342-4.27-4.645-3.657-7.628-9.33-7.628-15.7" fill="#EB001B"/><path d="M64.624 19.971c0 11.03-8.941 19.971-19.97 19.971a19.882 19.882 0 0 1-12.342-4.27c4.645-3.656 7.628-9.33 7.628-15.701 0-6.37-2.983-12.044-7.628-15.701A19.882 19.882 0 0 1 44.654 0c11.029 0 19.97 8.941 19.97 19.971z" fill="#F79E1B"/><path d="M86.858 36.599H85.37l1.884-3.284-2.725-4.892h1.507l1.976 3.536 1.905-3.536h1.475L86.858 36.6zm-5.62-7.07a1.773 1.773 0 0 0-1.72 1.189c-.09.24-.134.502-.134.785 0 .282.045.543.134.784.09.24.216.448.38.624.162.176.356.313.583.413.227.102.48.152.757.152.286 0 .545-.053.776-.157.231-.106.426-.247.584-.425.158-.178.279-.386.365-.627a2.25 2.25 0 0 0 .129-.764c0-.27-.043-.525-.13-.765a1.882 1.882 0 0 0-.364-.627 1.734 1.734 0 0 0-.584-.424 1.86 1.86 0 0 0-.776-.158zm.16-1.266a3.015 3.015 0 0 1 2.18.912c.28.287.497.63.655 1.026.159.397.238.83.238 1.302 0 .471-.08.904-.238 1.301a3.098 3.098 0 0 1-.654 1.026 3.015 3.015 0 0 1-2.18.913c-.441 0-.819-.082-1.134-.245a2.403 2.403 0 0 1-.792-.649v.733h-1.34v-8.64h1.34v3.214c.214-.27.479-.486.792-.649.315-.163.693-.244 1.133-.244zm25.857 3.237c0-1.084.708-1.973 1.865-1.973 1.108 0 1.853.851 1.853 1.973s-.745 1.973-1.853 1.973c-1.157 0-1.865-.89-1.865-1.973zm4.98 0V28.42h-1.338v.747c-.425-.554-1.068-.902-1.944-.902-1.724 0-3.075 1.354-3.075 3.236 0 1.883 1.351 3.236 3.075 3.236.876 0 1.519-.348 1.944-.902v.748h1.338V31.5zm45.19 0c0-1.084.708-1.973 1.866-1.973 1.106 0 1.853.851 1.853 1.973s-.747 1.973-1.853 1.973c-1.158 0-1.866-.89-1.866-1.973zm4.98 0v-5.557h-1.338v3.223c-.425-.554-1.068-.902-1.943-.902-1.724 0-3.075 1.354-3.075 3.236 0 1.883 1.35 3.236 3.075 3.236.875 0 1.518-.348 1.943-.902v.748h1.337V31.5zm-33.571-2.037c.862 0 1.415.541 1.557 1.496h-3.192c.142-.89.682-1.496 1.635-1.496zm.025-1.199c-1.801 0-3.062 1.315-3.062 3.236 0 1.96 1.313 3.236 3.153 3.236.926 0 1.775-.231 2.522-.863l-.656-.993a2.923 2.923 0 0 1-1.79.645c-.861 0-1.647-.4-1.84-1.51h4.568c.013-.167.026-.334.026-.515-.013-1.92-1.197-3.236-2.92-3.236zm16.149 3.236c0-1.084.708-1.973 1.866-1.973 1.106 0 1.852.851 1.852 1.973s-.746 1.973-1.852 1.973c-1.158 0-1.866-.89-1.866-1.973zm4.98 0V28.42h-1.338v.747c-.424-.554-1.068-.902-1.943-.902-1.725 0-3.076 1.354-3.076 3.236 0 1.883 1.351 3.236 3.076 3.236.875 0 1.519-.348 1.943-.902v.748h1.338V31.5zm-12.533 0c0 1.87 1.3 3.236 3.28 3.236.928 0 1.545-.206 2.214-.734l-.643-1.084c-.501.362-1.03.555-1.609.555-1.067-.014-1.852-.787-1.852-1.973s.785-1.96 1.852-1.973c.579 0 1.108.193 1.61.555l.642-1.083c-.67-.529-1.286-.735-2.213-.735-1.98 0-3.28 1.367-3.28 3.236zm17.243-3.236c-.773 0-1.275.36-1.622.902v-.747h-1.326v6.163h1.339v-3.455c0-1.02.438-1.587 1.312-1.587.271 0 .553.04.837.155l.411-1.263a2.84 2.84 0 0 0-.951-.168zm-35.85.645c-.643-.426-1.53-.645-2.509-.645-1.556 0-2.56.747-2.56 1.973 0 1.005.746 1.624 2.122 1.817l.631.091c.733.103 1.082.296 1.082.645 0 .476-.49.747-1.403.747-.926 0-1.596-.296-2.046-.645l-.631 1.045c.734.542 1.66.8 2.664.8 1.776 0 2.805-.839 2.805-2.012 0-1.083-.81-1.65-2.149-1.844l-.63-.09c-.58-.078-1.043-.193-1.043-.606 0-.452.438-.722 1.171-.722.786 0 1.544.297 1.917.529l.58-1.083zm17.256-.645c-.773 0-1.274.36-1.622.902v-.747h-1.325v6.163h1.338v-3.455c0-1.02.438-1.587 1.313-1.587.27 0 .553.04.836.155l.413-1.263a2.852 2.852 0 0 0-.953-.168zm-11.414.155h-2.186v-1.87h-1.351v1.87h-1.25v1.224h1.25v2.812c0 1.43.553 2.281 2.135 2.281.58 0 1.247-.18 1.673-.477l-.386-1.147c-.4.232-.836.347-1.184.347-.669 0-.887-.412-.887-1.031v-2.785h2.186V28.42zm-19.996 6.163v-3.869c0-1.456-.926-2.436-2.418-2.449-.786-.013-1.597.232-2.162 1.095-.424-.683-1.094-1.095-2.033-1.095-.657 0-1.3.193-1.802.915v-.76h-1.337v6.163h1.35v-3.417c0-1.07.592-1.638 1.505-1.638.889 0 1.338.58 1.338 1.625v3.43h1.351v-3.417c0-1.07.619-1.638 1.506-1.638.914 0 1.351.58 1.351 1.625v3.43h1.351zM227.287 9.608c-1.373-.908-3.267-1.376-5.354-1.376-3.322 0-5.464 1.596-5.464 4.21 0 2.146 1.593 3.466 4.53 3.88l1.346.192c1.565.22 2.306.633 2.306 1.376 0 1.017-1.043 1.596-2.992 1.596-1.978 0-3.405-.634-4.366-1.376l-1.345 2.228c1.564 1.156 3.542 1.706 5.683 1.706 3.79 0 5.986-1.788 5.986-4.292 0-2.312-1.73-3.521-4.585-3.934l-1.346-.193c-1.236-.165-2.224-.413-2.224-1.293 0-.964.934-1.541 2.499-1.541 1.675 0 3.294.633 4.091 1.128l1.235-2.31zm-13.701 0c-1.372-.908-3.267-1.376-5.355-1.376-3.322 0-5.463 1.596-5.463 4.21 0 2.146 1.592 3.466 4.53 3.88l1.346.192c1.565.22 2.306.633 2.306 1.376 0 1.017-1.043 1.596-2.993 1.596-1.977 0-3.405-.634-4.366-1.376l-1.345 2.228c1.565 1.156 3.542 1.706 5.684 1.706 3.789 0 5.986-1.788 5.986-4.292 0-2.312-1.73-3.521-4.586-3.934l-1.345-.193c-1.236-.165-2.225-.413-2.225-1.293 0-.964.934-1.541 2.5-1.541 1.674 0 3.294.633 4.09 1.128l1.236-2.31zm-32.702 5.475c0 2.312-1.51 4.21-3.981 4.21-2.362 0-3.955-1.817-3.955-4.21 0-2.394 1.593-4.21 3.955-4.21 2.47 0 3.981 1.9 3.981 4.21zm-10.626 0v11.336h2.855v-6.356c.906 1.183 2.28 1.926 4.147 1.926 3.679 0 6.562-2.889 6.562-6.906 0-4.017-2.883-6.906-6.562-6.906-1.867 0-3.24.743-4.147 1.926V8.507h-2.855v6.576zm18.589.028c0-2.312 1.51-4.21 3.98-4.21 2.363 0 3.955 1.816 3.955 4.21 0 2.393-1.592 4.21-3.954 4.21-2.471 0-3.981-1.9-3.981-4.21zm10.626 0V8.535h-2.856v1.596c-.906-1.183-2.279-1.927-4.146-1.927-3.679 0-6.562 2.89-6.562 6.907 0 4.017 2.883 6.905 6.562 6.905 1.867 0 3.24-.742 4.146-1.925v1.596h2.856V15.11zm-95.196 0c0-2.312 1.51-4.21 3.981-4.21 2.362 0 3.954 1.816 3.954 4.21 0 2.393-1.592 4.21-3.954 4.21-2.47 0-3.98-1.9-3.98-4.21zm10.627 0V8.535h-2.856v1.596c-.906-1.183-2.28-1.927-4.146-1.927-3.68 0-6.563 2.89-6.563 6.907 0 4.017 2.884 6.905 6.563 6.905 1.867 0 3.24-.742 4.146-1.925v1.596h2.856V15.11zm35.42-4.347c1.839 0 3.02 1.155 3.322 3.19h-6.81c.302-1.898 1.456-3.19 3.488-3.19zm.054-2.56c-3.844 0-6.535 2.807-6.535 6.907 0 4.181 2.801 6.905 6.728 6.905 1.976 0 3.788-.494 5.381-1.842l-1.4-2.12c-1.099.88-2.499 1.376-3.817 1.376-1.84 0-3.514-.852-3.926-3.22h9.747c.028-.356.055-.714.055-1.1-.027-4.1-2.554-6.906-6.233-6.906zM129.016 9.58c-1.373-.908-3.268-1.376-5.354-1.376-3.323 0-5.464 1.596-5.464 4.21 0 2.146 1.593 3.467 4.531 3.88l1.345.193c1.565.22 2.306.632 2.306 1.375 0 1.018-1.043 1.596-2.992 1.596-1.978 0-3.405-.633-4.366-1.376l-1.345 2.229c1.564 1.156 3.542 1.705 5.683 1.705 3.79 0 5.986-1.788 5.986-4.292 0-2.31-1.73-3.521-4.585-3.933l-1.347-.194c-1.235-.165-2.223-.413-2.223-1.293 0-.963.934-1.54 2.499-1.54 1.675 0 3.294.632 4.09 1.128l1.236-2.312zm36.821-1.376c-1.647 0-2.718.77-3.46 1.927V8.535h-2.828v13.152h2.855v-7.374c0-2.174.934-3.384 2.801-3.384.578 0 1.18.082 1.785.33l.88-2.696c-.633-.248-1.456-.359-2.033-.359zm-24.355.33h-4.668V4.546h-2.882v3.99h-2.664v2.613h2.664v5.999c0 3.053 1.18 4.87 4.557 4.87 1.236 0 2.664-.386 3.57-1.018l-.824-2.45c-.851.496-1.785.743-2.526.743-1.428 0-1.895-.88-1.895-2.2v-5.944h4.668V8.535zM98.814 21.688v-8.255c0-3.11-1.978-5.2-5.163-5.228-1.675-.027-3.405.496-4.613 2.339-.907-1.458-2.334-2.339-4.338-2.339-1.4 0-2.773.413-3.844 1.955V8.535H78v13.152h2.883v-7.292c0-2.283 1.263-3.494 3.213-3.494 1.894 0 2.855 1.238 2.855 3.467v7.319h2.884v-7.292c0-2.283 1.317-3.494 3.212-3.494 1.95 0 2.883 1.238 2.883 3.467v7.319h2.884z" fill="#211F1C"/></g></svg>
